<?xml version="1.0" encoding="UTF-8"?>
<svg width="163px" height="36px" viewBox="0 0 163 36" version="1.1" xmlns="http://www.w3.org/2000/svg" xmlns:xlink="http://www.w3.org/1999/xlink">
    <title>preview-icons</title>
    <g id="preview-icons" stroke="none" stroke-width="1" fill="none" fill-rule="evenodd">
        <path d="M11.927203,0 C11.4725013,0 11.011985,0.0254261774 10.5462356,0.0774342676 C4.77757141,0.723490321 0.276489914,5.57295579 0.0119256351,11.33603 C-0.166582571,15.2268131 1.6778084,18.3426755 4.27460855,20.9413464 L18.6674868,35.2453048 C19.1739384,35.7480497 19.8368027,36 20.5002486,36 C21.1631129,36 21.8265587,35.7480497 22.3324289,35.2453048 L36.7253071,20.9413464 C39.2988488,18.3178272 41.1461471,15.2655302 40.9908973,11.4030627 C40.7588948,5.62727535 36.2694425,0.747182895 30.4926379,0.0820572089 C30.0135149,0.0265819127 29.5402064,0 29.0727126,0 C25.7048966,0 22.6690942,1.39266108 20.5002486,3.62380815 C18.3314029,1.39266108 15.2950191,0 11.927203,0 M29.0727126,2.31147067 C29.4535689,2.31147067 29.8408212,2.33400751 30.2245848,2.37792546 C34.8500987,2.91071945 38.4795718,6.82981797 38.6673833,11.4949437 C38.7761163,14.2149668 37.6335475,16.7009535 35.0693091,19.3181162 L20.6874787,33.6110951 C20.6363102,33.6625253 20.572931,33.6885293 20.5002486,33.6885293 C20.4269846,33.6885293 20.3641869,33.6625253 20.312437,33.6110951 L5.9247919,19.3123375 C3.34776139,16.7333141 2.20693696,14.2323028 2.33543961,11.441202 C2.54883541,6.78936723 6.1905191,2.89164981 10.8067297,2.37445825 C11.180027,2.33285178 11.556813,2.31147067 11.927203,2.31147067 C14.5472616,2.31147067 16.9981153,3.34816527 18.8273883,5.2297024 C19.2658091,5.68043918 19.8693645,5.93527882 20.5002486,5.93527882 C21.1305511,5.93527882 21.734688,5.68043918 22.1725274,5.2297024 C24.0023819,3.34816527 26.4526541,2.31147067 29.0727126,2.31147067" id="Fill-3"></path>
        <rect id="Rectangle" x="64" y="4" width="36" height="3"></rect>
        <rect id="Rectangle-Copy-13" x="64" y="16" width="36" height="3"></rect>
        <rect id="Rectangle-Copy-14" x="64" y="28" width="36" height="3"></rect>
        <rect id="Rectangle" transform="translate(147.1213, 18.6213) rotate(-315) translate(-147.1213, -18.6213)" x="126.12132" y="17.1213203" width="42" height="3"></rect>
        <rect id="Rectangle" transform="translate(147.1213, 18.6213) rotate(-45) translate(-147.1213, -18.6213)" x="126.12132" y="17.1213203" width="42" height="3"></rect>
    </g>
</svg>